<?xml version="1.0" encoding="utf-8"?>
<!-- Generator: Adobe Illustrator 17.0.0, SVG Export Plug-In . SVG Version: 6.00 Build 0)  -->
<!DOCTYPE svg PUBLIC "-//W3C//DTD SVG 1.1//EN" "http://www.w3.org/Graphics/SVG/1.1/DTD/svg11.dtd">
<svg version="1.1" id="Слой_1" xmlns="http://www.w3.org/2000/svg" xmlns:xlink="http://www.w3.org/1999/xlink" x="0px" y="0px"
	 width="31px" height="34px" viewBox="0 0 31 34" enable-background="new 0 0 31 34" xml:space="preserve">
<path fill="#FFFFFF" stroke="#000000" stroke-miterlimit="10" d="M24.663,15.972c0-5.356-4.251-9.697-9.494-9.697
	c-5.243,0-9.494,4.341-9.494,9.697c0,3.688,4.628,8.61,4.984,9.45c0.356,0.839,0.067,2.078,0.067,2.078h8.565
	c0,0-0.127-1.146,0.229-2C19.877,24.645,24.663,19.724,24.663,15.972z"/>
<g>
	<g>
		<path d="M14.661,3c0,0-0.22-0.817-0.35-1.625c-0.036-0.202-0.107-0.408-0.121-0.598c0.002-0.189,0.053-0.243,0.121-0.395
			C14.438,0.079,14.661,0,14.661,0h0.1c0,0,0.222,0.077,0.35,0.38c0.068,0.152,0.119,0.266,0.121,0.455
			c-0.014,0.189-0.084,0.369-0.121,0.571C14.981,2.214,14.761,3,14.761,3H14.661z"/>
	</g>
	<g>
		<path d="M25.4,23.522c0,0,0.717,0.417,1.369,0.898c0.166,0.117,0.356,0.211,0.497,0.335c0.13,0.135,0.215,0.296,0.272,0.451
			c0.118,0.304,0.1,0.602,0.1,0.602l-0.071,0.07c0,0-0.299,0.013-0.6-0.112c-0.153-0.06-0.312-0.149-0.445-0.281
			c-0.121-0.144-0.211-0.336-0.324-0.504c-0.467-0.662-0.869-1.388-0.869-1.388L25.4,23.522z"/>
	</g>
	<g>
		<path d="M4.852,23.592c0,0-0.402,0.726-0.869,1.388c-0.114,0.168-0.204,0.36-0.324,0.504c-0.132,0.133-0.292,0.222-0.445,0.281
			c-0.301,0.125-0.6,0.112-0.6,0.112l-0.071-0.07c0,0-0.019-0.298,0.1-0.602c0.057-0.154,0.142-0.315,0.272-0.451
			c0.141-0.124,0.331-0.218,0.497-0.335c0.652-0.481,1.369-0.898,1.369-0.898L4.852,23.592z"/>
	</g>
	<g>
		<path d="M27,15.599c0,0,1.007-0.22,1.798-0.35c0.198-0.036,0.504-0.107,0.689-0.121c0.185,0.002,0.614,0.053,0.762,0.121
			c0.297,0.128,0.75,0.35,0.75,0.35v0.1c0,0-0.399,0.222-0.696,0.35c-0.148,0.068-0.422,0.119-0.608,0.121
			c-0.185-0.014-0.65-0.084-0.848-0.121c-0.791-0.13-1.849-0.35-1.849-0.35V15.599z"/>
	</g>
	<g>
		<path d="M24.062,7.706c0,0,0.402-0.726,0.869-1.388c0.114-0.168,0.204-0.36,0.324-0.504c0.132-0.133,0.292-0.222,0.445-0.282
			c0.301-0.125,0.6-0.112,0.6-0.112l0.071,0.07c0,0,0.019,0.298-0.1,0.602C26.215,6.247,26.13,6.408,26,6.543
			c-0.141,0.124-0.331,0.218-0.497,0.335c-0.652,0.481-1.369,0.898-1.369,0.898L24.062,7.706z"/>
	</g>
	<g>
		<path d="M6.679,7.13c0,0-0.717-0.417-1.369-0.898C5.145,6.114,4.955,6.021,4.813,5.897c-0.13-0.135-0.215-0.296-0.272-0.451
			c-0.118-0.304-0.1-0.602-0.1-0.602l0.071-0.07c0,0,0.299-0.013,0.6,0.112c0.153,0.06,0.312,0.149,0.445,0.282
			c0.121,0.144,0.211,0.336,0.324,0.504C6.349,6.334,6.751,7.06,6.751,7.06L6.679,7.13z"/>
	</g>
	<g>
		<path d="M3,15.699c0,0-0.917,0.22-1.708,0.35c-0.198,0.036-0.459,0.107-0.644,0.121c-0.185-0.002-0.182-0.053-0.33-0.121
			C0.021,15.921,0,15.699,0,15.699v-0.1c0,0-0.011-0.222,0.286-0.35c0.148-0.068,0.217-0.119,0.403-0.121
			c0.185,0.014,0.457,0.084,0.655,0.121C2.135,15.379,3,15.599,3,15.599V15.699z"/>
	</g>
</g>
<g>
	<path d="M9.866,16.295l1.266-0.081l-0.079,0.067l0.272-2.281l0.099-0.833l0.273,0.814c0.355,1.061,0.675,2.131,1.002,3.2
		l-0.609,0.034c0.257-2.021,0.508-4.042,0.806-6.056l0.434-2.935l0.47,2.94c0.579,3.62,1.106,7.247,1.588,10.881l-0.914-0.014
		c0.362-1.936,0.756-3.866,1.162-5.794l0.059-0.278l0.264,0.008l0.87,0.026l-0.275,0.179c0.329-0.672,0.641-1.35,0.983-2.016
		l0.267-0.52l0.155,0.539l0.628,2.19l-0.116-0.079c0.668-0.008,1.336,0.001,2.004,0.009c-0.664,0.08-1.327,0.16-1.992,0.224
		l-0.082,0.008l-0.034-0.087l-0.836-2.119l0.421,0.019c-0.268,0.699-0.564,1.385-0.845,2.078l-0.07,0.173l-0.206,0.006l-0.87,0.026
		l0.322-0.27c-0.279,1.951-0.572,3.899-0.895,5.842l-0.468,2.808l-0.446-2.822c-0.573-3.621-1.101-7.248-1.577-10.883l0.905,0.005
		c-0.335,2.008-0.717,4.009-1.093,6.011l-0.27,1.435l-0.339-1.401c-0.263-1.086-0.533-2.17-0.768-3.264l0.372-0.019l-0.489,2.244
		l-0.016,0.071l-0.064-0.004L9.866,16.295z"/>
</g>
<g>
	<path stroke="#000000" stroke-miterlimit="10" d="M10.371,27.5h9.286c0,0,0.719,0.529,0.719,1s-0.719,1-0.719,1h-9.286
		c0,0-0.829-0.425-0.829-1S10.371,27.5,10.371,27.5z"/>
	<g>
		<path stroke="#000000" stroke-miterlimit="10" d="M10.371,29.5h9.286c0,0,0.719,0.529,0.719,1s-0.719,1-0.719,1h-9.286
			c0,0-0.829-0.425-0.829-1S10.371,29.5,10.371,29.5z"/>
	</g>
	<g>
		<path stroke="#000000" stroke-miterlimit="10" d="M10.371,31.5h9.286c0,0,0.719,0.529,0.719,1s-0.719,1-0.719,1h-9.286
			c0,0-0.829-0.425-0.829-1S10.371,31.5,10.371,31.5z"/>
	</g>
</g>
</svg>
